<svg xmlns="http://www.w3.org/2000/svg" xmlns:xlink="http://www.w3.org/1999/xlink" width="946" height="627.592" viewBox="0 0 946 627.592">
  <defs>
    <radialGradient id="radial-gradient" cx="0.863" cy="0.113" r="1.205" gradientUnits="objectBoundingBox">
      <stop offset="0" stop-color="#edf3fd"/>
      <stop offset="0.409" stop-color="#dce8fb"/>
      <stop offset="1" stop-color="#aebdd8"/>
    </radialGradient>
    <linearGradient id="linear-gradient" x1="0.683" y1="-0.092" x2="0" y2="0.5" gradientUnits="objectBoundingBox">
      <stop offset="0" stop-color="#cfddf3"/>
      <stop offset="1" stop-color="#a1b8e3"/>
    </linearGradient>
    <linearGradient id="linear-gradient-2" x1="2.276" y1="-0.303" x2="0.5" y2="1" xlink:href="#linear-gradient"/>
    <linearGradient id="linear-gradient-9" x1="1.063" y1="0.084" x2="0.297" y2="0.33" gradientUnits="objectBoundingBox">
      <stop offset="0" stop-color="#91d0ff"/>
      <stop offset="0.481" stop-color="#6db4ff"/>
      <stop offset="1" stop-color="#2881ee"/>
    </linearGradient>
    <linearGradient id="linear-gradient-10" x1="0.375" y1="0.5" x2="1" y2="0.195" gradientUnits="objectBoundingBox">
      <stop offset="0" stop-color="#ffccb5"/>
      <stop offset="1" stop-color="#df1e1e"/>
    </linearGradient>
    <linearGradient id="linear-gradient-12" x1="0" y1="0.33" x2="1.074" y2="0.649" xlink:href="#linear-gradient-10"/>
    <linearGradient id="linear-gradient-13" x1="0.057" y1="-0.066" x2="0.173" y2="0.436" gradientUnits="objectBoundingBox">
      <stop offset="0" stop-color="#2d6dc0"/>
      <stop offset="1" stop-color="#143b8c"/>
    </linearGradient>
    <linearGradient id="linear-gradient-14" x1="0.575" y1="0.382" x2="0.661" y2="0.887" gradientUnits="objectBoundingBox">
      <stop offset="0" stop-color="#174293" stop-opacity="0"/>
      <stop offset="1" stop-color="#051e4b"/>
    </linearGradient>
    <linearGradient id="linear-gradient-15" x1="-0.081" y1="0.267" x2="0.5" y2="1" xlink:href="#linear-gradient-13"/>
    <linearGradient id="linear-gradient-16" x1="0.384" y1="0.59" x2="0.312" y2="0.81" gradientUnits="objectBoundingBox">
      <stop offset="0" stop-color="#2e7de7" stop-opacity="0"/>
      <stop offset="1" stop-color="#00357e" stop-opacity="0.502"/>
    </linearGradient>
    <linearGradient id="linear-gradient-17" x1="0.5" y1="1" x2="0.5" gradientUnits="objectBoundingBox">
      <stop offset="0" stop-color="#70b8f9" stop-opacity="0.275"/>
      <stop offset="1" stop-color="#3d82f0"/>
    </linearGradient>
    <linearGradient id="linear-gradient-18" x1="0.552" y1="0.544" x2="1" y2="0.82" gradientUnits="objectBoundingBox">
      <stop offset="0" stop-color="#3d82f0" stop-opacity="0"/>
      <stop offset="1" stop-color="#3d82f0"/>
    </linearGradient>
    <linearGradient id="linear-gradient-21" x1="0.5" y1="0.755" x2="0.19" y2="0.372" gradientUnits="objectBoundingBox">
      <stop offset="0" stop-color="#dea085"/>
      <stop offset="1" stop-color="#a43232"/>
    </linearGradient>
    <linearGradient id="linear-gradient-22" x1="1" y1="0.321" x2="0" y2="0.5" xlink:href="#linear-gradient-10"/>
    <linearGradient id="linear-gradient-23" x1="0.941" y1="0.025" x2="0.152" y2="0.62" gradientUnits="objectBoundingBox">
      <stop offset="0" stop-color="#164898"/>
      <stop offset="1" stop-color="#223762"/>
    </linearGradient>
    <linearGradient id="linear-gradient-24" x1="0.5" y1="0.592" x2="0.163" y2="1" gradientUnits="objectBoundingBox">
      <stop offset="0" stop-color="#233582" stop-opacity="0"/>
      <stop offset="1"/>
    </linearGradient>
    <linearGradient id="linear-gradient-25" x1="0.92" y1="0.948" x2="0.5" y2="0.262" gradientUnits="objectBoundingBox">
      <stop offset="0" stop-color="#363471"/>
      <stop offset="1" stop-color="#1e1f48"/>
    </linearGradient>
    <linearGradient id="linear-gradient-26" x1="1.034" y1="0.274" x2="0.821" y2="0.274" gradientUnits="objectBoundingBox">
      <stop offset="0" stop-color="#ff7575" stop-opacity="0.502"/>
      <stop offset="1" stop-opacity="0"/>
    </linearGradient>
    <linearGradient id="linear-gradient-29" x1="0.875" y1="0.18" x2="0.411" y2="0.736" gradientUnits="objectBoundingBox">
      <stop offset="0" stop-color="#2fe0d6"/>
      <stop offset="1" stop-color="#39a383"/>
    </linearGradient>
    <linearGradient id="linear-gradient-30" y1="1.073" x2="1" y2="0.063" gradientUnits="objectBoundingBox">
      <stop offset="0" stop-color="#51c897" stop-opacity="0"/>
      <stop offset="1" stop-color="#45b4b4"/>
    </linearGradient>
    <linearGradient id="linear-gradient-31" x1="1.088" y1="0.339" x2="0.375" y2="0.5" gradientUnits="objectBoundingBox">
      <stop offset="0" stop-color="#eaf0f7" stop-opacity="0.114"/>
      <stop offset="1" stop-color="#d1dded"/>
    </linearGradient>
    <linearGradient id="linear-gradient-33" x1="0.162" y1="0.5" x2="0.422" y2="0.5" gradientUnits="objectBoundingBox">
      <stop offset="0" stop-color="#297e72"/>
      <stop offset="1" stop-color="#4ab2ab"/>
    </linearGradient>
    <linearGradient id="linear-gradient-34" x1="0" y1="0.174" x2="0.594" y2="0.366" xlink:href="#linear-gradient-9"/>
    <linearGradient id="linear-gradient-35" x1="0.74" y1="0.5" x2="0.223" y2="0.679" xlink:href="#linear-gradient-25"/>
    <linearGradient id="linear-gradient-36" x1="0.721" y1="0.375" x2="0.5" y2="0.759" xlink:href="#linear-gradient-26"/>
    <linearGradient id="linear-gradient-38" x1="1.113" y1="0.448" x2="0.5" y2="0.759" xlink:href="#linear-gradient-26"/>
    <linearGradient id="linear-gradient-39" x1="0.987" y1="0.759" x2="0" y2="0.373" gradientUnits="objectBoundingBox">
      <stop offset="0" stop-color="#91d0ff"/>
      <stop offset="1" stop-color="#58a3ff" stop-opacity="0"/>
    </linearGradient>
    <linearGradient id="linear-gradient-40" x1="0.5" x2="0.432" y2="0.603" gradientUnits="objectBoundingBox">
      <stop offset="0" stop-color="#0041b2"/>
      <stop offset="1" stop-color="#2d64d7" stop-opacity="0"/>
    </linearGradient>
    <linearGradient id="linear-gradient-41" x1="1" x2="0.267" y2="0.5" xlink:href="#linear-gradient-10"/>
    <linearGradient id="linear-gradient-43" x1="1" y1="0.321" x2="0" y2="0.649" xlink:href="#linear-gradient-10"/>
    <linearGradient id="linear-gradient-44" y1="1" x2="0.645" y2="0.391" gradientUnits="objectBoundingBox">
      <stop offset="0" stop-color="#98c7ff"/>
      <stop offset="1" stop-color="#fff"/>
    </linearGradient>
    <linearGradient id="linear-gradient-45" x1="0.728" y1="0.279" x2="0" y2="0.5" gradientUnits="objectBoundingBox">
      <stop offset="0" stop-color="#319eff"/>
      <stop offset="1" stop-color="#3a9eff" stop-opacity="0"/>
    </linearGradient>
    <linearGradient id="linear-gradient-46" x1="0.5" y1="0.7" x2="1" y2="0.366" gradientUnits="objectBoundingBox">
      <stop offset="0" stop-color="#4794d8"/>
      <stop offset="1" stop-color="#3aa0ff" stop-opacity="0"/>
    </linearGradient>
    <linearGradient id="linear-gradient-48" x1="0.774" y1="0" x2="-0.147" y2="0.755" xlink:href="#linear-gradient-10"/>
    <linearGradient id="linear-gradient-50" x1="0.673" y1="0.585" x2="0.5" y2="0.924" xlink:href="#linear-gradient-26"/>
    <linearGradient id="linear-gradient-51" x1="0.941" y1="0.025" x2="0.152" y2="0.62" gradientUnits="objectBoundingBox">
      <stop offset="0" stop-color="#9cc2ff"/>
      <stop offset="1" stop-color="#6494f6"/>
    </linearGradient>
    <linearGradient id="linear-gradient-52" x1="0.5" y1="0.592" x2="0.163" y2="1" gradientUnits="objectBoundingBox">
      <stop offset="0" stop-color="#8aa0ff" stop-opacity="0"/>
      <stop offset="1" stop-color="#3662bb"/>
    </linearGradient>
    <linearGradient id="linear-gradient-53" x1="0.908" y1="0.5" x2="0.128" y2="0.631" gradientUnits="objectBoundingBox">
      <stop offset="0" stop-color="#ffebbe"/>
      <stop offset="1" stop-color="#d9b978"/>
    </linearGradient>
    <linearGradient id="linear-gradient-54" x1="0.317" y1="1.142" x2="0.421" gradientUnits="objectBoundingBox">
      <stop offset="0" stop-color="#55a7ff"/>
      <stop offset="1" stop-color="#3f85db"/>
    </linearGradient>
    <linearGradient id="linear-gradient-56" x1="0.4" y1="0.217" x2="0.653" y2="0.217" gradientUnits="objectBoundingBox">
      <stop offset="0" stop-color="#002b64"/>
      <stop offset="1" stop-color="#0f3177"/>
    </linearGradient>
    <linearGradient id="linear-gradient-57" x1="0.813" y1="0.282" x2="0.218" y2="0.645" xlink:href="#linear-gradient-9"/>
    <linearGradient id="linear-gradient-58" x1="1" y1="0.5" x2="0" y2="0.5" gradientUnits="objectBoundingBox">
      <stop offset="0" stop-color="#d9e5f6" stop-opacity="0.714"/>
      <stop offset="1" stop-color="#b2c6ea"/>
    </linearGradient>
    <linearGradient id="linear-gradient-59" x1="1" y1="1" x2="0.232" y2="0.678" gradientUnits="objectBoundingBox">
      <stop offset="0" stop-color="#002964"/>
      <stop offset="0.627" stop-color="#4270b4"/>
      <stop offset="1" stop-color="#4f8ded"/>
    </linearGradient>
    <linearGradient id="linear-gradient-61" x1="0.776" x2="0.403" y2="1.463" gradientUnits="objectBoundingBox">
      <stop offset="0" stop-color="#032b67"/>
      <stop offset="1" stop-color="#26529b"/>
    </linearGradient>
    <linearGradient id="linear-gradient-63" x1="0.342" y1="0.05" x2="0.786" y2="1" gradientUnits="objectBoundingBox">
      <stop offset="0" stop-color="#b1ffbe"/>
      <stop offset="0.444" stop-color="#5cdb8e"/>
      <stop offset="1" stop-color="#149654"/>
    </linearGradient>
    <linearGradient id="linear-gradient-65" x1="0.786" y1="-0.093" x2="0.904" y2="0.888" xlink:href="#linear-gradient-63"/>
  </defs>
  <g id="Grupo_606" data-name="Grupo 606" transform="translate(-921 -314)">
    <rect id="_2_Team_V2_background" data-name="2_Team V2 background" width="946" height="626" transform="translate(921 314)" fill="none"/>
    <path id="Shape_sp-138-0" data-name="Shape sp-138-0" d="M265.46,60.081c152.014-44.27,298.956,3.406,328.2,106.489S523.39,389.1,371.376,433.376,72.42,429.969,43.172,326.887,113.447,104.352,265.46,60.081Z" transform="translate(982.902 348.896)" fill="url(#radial-gradient)" style="mix-blend-mode: multiply;isolation: isolate"/>
    <path id="Shape_sp-138-0-2" data-name="Shape sp-138-0" d="M549.6,162.285c138.84-40.434,273.932,6.224,301.735,104.214S789.127,476.7,650.285,517.138s-273.932-6.224-301.735-104.214S410.763,202.72,549.6,162.285Z" transform="translate(876.951 313.65)" fill="url(#radial-gradient)" style="mix-blend-mode: multiply;isolation: isolate"/>
    <path id="leaves" d="M25.011,241.047c6.173,5.488,29.835-5.7,39.29-22.9s-7.866-23.2,15.9-50.764,38.972-38.15,24.905-83.271,5.869-70.357-20.214-82-41.367,27.585-38.565,62-3.374,41.581-28.932,38.161-4.283,47-4.346,58.032S-2.644,191.92.485,207.319,18.838,235.559,25.011,241.047Z" transform="translate(1192.933 621.044) rotate(-31)" fill="url(#linear-gradient)"/>
    <path id="branch" d="M13.4,50.84C13.449,42.372,11.474,16,0,0" transform="translate(1289.093 728.995) rotate(-31)" fill="none" stroke="#707070" stroke-linecap="round" stroke-miterlimit="10" stroke-width="6"/>
    <path id="branch-2" data-name="branch" d="M.011,30.7C.059,22.228,23.721,16.147,35.38.012" transform="translate(1301.186 687.464) rotate(-31)" fill="none" stroke="#707070" stroke-linecap="round" stroke-miterlimit="10" stroke-width="6"/>
    <path id="branch-3" data-name="branch" d="M.077,220.791c.021-3.6,6.28-19.879,12.281-38.73C31.148,123.031,61.307,50.3,61.6.021" transform="translate(1233.066 666.925) rotate(-31)" fill="none" stroke="#707070" stroke-linecap="round" stroke-miterlimit="10" stroke-width="6"/>
    <path id="stem" d="M0,154.836C.008,128.087,22.1,45.3,51.9,0" transform="matrix(1, -0.017, 0.017, 1, 1466.124, 654.948)" fill="none" stroke="#707070" stroke-linecap="round" stroke-miterlimit="10" stroke-width="6"/>
    <path id="leaf" d="M7.833,0c4.243-.024,7.621,10.816,7.544,24.214S11.8,48.494,7.554,48.519-.067,37.7.01,24.305,3.589.027,7.833,0Z" transform="translate(1472.975 629.182) rotate(-31)" fill="url(#linear-gradient-2)"/>
    <path id="leaf-2" data-name="leaf" d="M7.74,0c4.284,0,7.764,10.763,7.773,24.033s-3.456,24.025-7.74,24.022S.008,37.292,0,24.022,3.455,0,7.74,0Z" transform="translate(1559.729 661.073) rotate(87)" fill="url(#linear-gradient-2)"/>
    <ellipse id="leaf-3" data-name="leaf" cx="7.757" cy="24.026" rx="7.757" ry="24.026" transform="translate(1546.52 697.874) rotate(90)" fill="url(#linear-gradient-2)"/>
    <ellipse id="leaf-4" data-name="leaf" cx="7.757" cy="24.026" rx="7.757" ry="24.026" transform="translate(1535.493 732.314) rotate(90)" fill="url(#linear-gradient-2)"/>
    <path id="leaf-5" data-name="leaf" d="M7.536,0c4.244.025,7.748,10.9,7.827,24.3S12.064,48.529,7.82,48.5.071,37.6-.007,24.205,3.292-.028,7.536,0Z" transform="matrix(0.848, 0.53, -0.53, 0.848, 1539.521, 603.623)" fill="url(#linear-gradient-2)"/>
    <path id="leaf-6" data-name="leaf" d="M7.87,0c4.254-.028,7.632,10.785,7.545,24.151S11.81,48.377,7.556,48.4-.075,37.619.011,24.254,3.616.031,7.87,0Z" transform="translate(1451.787 670.872) rotate(-42)" fill="url(#linear-gradient-2)"/>
    <path id="leaf-7" data-name="leaf" d="M7.88,0c4.259-.028,7.642,10.77,7.555,24.118s-3.61,24.19-7.869,24.218S-.075,37.568.011,24.221,3.621.031,7.88,0Z" transform="translate(1436.975 710.959) rotate(-48)" fill="url(#linear-gradient-2)"/>
    <path id="Line" d="M0,51.394,66.293,0" transform="translate(1262.907 447.548)" fill="none" stroke="#707070" stroke-linecap="round" stroke-linejoin="round" stroke-miterlimit="10" stroke-width="8" opacity="0.473"/>
    <path id="Line_Copy" data-name="Line Copy" d="M0,40.537,52.288,0" transform="translate(1263.561 484.211)" fill="none" stroke="#707070" stroke-linecap="round" stroke-linejoin="round" stroke-miterlimit="10" stroke-width="8" opacity="0.473"/>
    <path id="Line_Copy_3" data-name="Line Copy 3" d="M0,51.394,66.293,0" transform="translate(1492.151 506.438)" fill="none" stroke="#707070" stroke-linecap="round" stroke-linejoin="round" stroke-miterlimit="10" stroke-width="8" opacity="0.473"/>
    <path id="Line_Copy_2" data-name="Line Copy 2" d="M0,40.537,52.288,0" transform="translate(1492.805 543.101)" fill="none" stroke="#707070" stroke-linecap="round" stroke-linejoin="round" stroke-miterlimit="10" stroke-width="8" opacity="0.473"/>
    <path id="Mask_Path" data-name="Mask Path" d="M211.239,29.6,65.266,2Q1.723,96.331,5.128,161.106,45.275,177.964,159.7,214.462l61.381-167.24a13.284,13.284,0,0,0-7.69-17.016A12.9,12.9,0,0,0,211.239,29.6Z" transform="translate(1527.987 606.452)" fill="url(#linear-gradient-9)"/>
    <path id="Mask_Path-2" data-name="Mask Path" d="M43.033,40.089q2,6.984-1.808,10.081c-3.806,3.1-7.628,8.365-11.4,8.8S21.981,61.5,21.32,66.85C21,69.437,7.926,82.812,3.254,101.214Q1.48,108.2,7.57,122.722l10.8-6.025L33.759,91.448q25.631-9.021,28.9-11.176c3.267-2.155,13.849-11.378,11.809-14.836s4.6-25.429,8.54-29.7,7.172-14.678,7.251-18.52S91.7,1.869,81.862,2.236Q72.021,2.6,43.033,40.089Z" transform="translate(1550.27 604.39)" fill="url(#linear-gradient-10)"/>
    <path id="Path_3" data-name="Path 3" d="M28.818,58.9S10.151,25.335,1.432,16.912,43.034,0,43.034,0L28.818,65.232Z" transform="translate(1601.293 605.347)" fill="#b60808" opacity="0.359"/>
    <path id="Mask_Path-3" data-name="Mask Path" d="M43.033,40.089q2,6.984-1.808,10.081c-3.806,3.1-7.628,8.365-11.4,8.8S21.981,61.5,21.32,66.85C21,69.437,7.926,82.812,3.254,101.214Q1.48,108.2,7.57,122.722l10.8-6.025L33.759,91.448q25.631-9.021,28.9-11.176c3.267-2.155,13.849-11.378,11.809-14.836s4.6-25.429,8.54-29.7,7.172-14.678,7.251-18.52S91.7,1.869,81.862,2.236Q72.021,2.6,43.033,40.089Z" transform="translate(1550.27 604.39)" fill="url(#linear-gradient-10)"/>
    <path id="Mask_Path-4" data-name="Mask Path" d="M27.371,8.043c-4.5,3.073-.662,15.441-5.538,22.5-2.666,3.86-8.273,6.006-10.862,7.543-7.325,4.346.2,7.448,1.716,10.035s.307,8.431-.826,13.037-5.155,14.985-.843,17.3S41.8,90.906,49.458,87.813,59.85,69.228,61.737,68.22s3.212.056,4.954.5c4.534,1.145,8.628-1.429,10.808-5.093,2.468-4.15,5.977-2.256,4.08-7.927-2.927-8.748-19.893-43.2-26.633-45.68S34.338,3.289,27.371,8.043Z" transform="translate(1555.731 557.494)" fill="url(#linear-gradient-12)"/>
    <path id="Mask_Path-5" data-name="Mask Path" d="M38.181,48.319c-17.24-4.355-25.256-.454-31.5-14.028C2.995,26.274,10.174,1.679,22.264,1.123c2.975,13.748,17.347,14.93,25.675,16.072,44.715,6.133,49.394,47.554,36.008,71.952a107.919,107.919,0,0,1-11.854,17.73c-2.258,2.686-5.209,5.923-6.206,7.459-.333.512-3.217,6.982-3.716,6.856-1.507-.38-.9-.457-.163-7.154A82.366,82.366,0,0,1,64.5,100.091c.4-1.609,7.894-13.971,2.136-18.447q-5.758-4.476-15.558,5.467L47.111,85.6A89.362,89.362,0,0,0,52.082,72.52C53.121,68.3,55.42,52.674,38.181,48.319Z" transform="translate(1566.912 526.684)" fill="url(#linear-gradient-13)"/>
    <path id="Mask_Path-6" data-name="Mask Path" d="M38.181,48.319c-17.24-4.355-25.256-.454-31.5-14.028C2.995,26.274,10.174,1.679,22.264,1.123c2.975,13.748,17.347,14.93,25.675,16.072,44.715,6.133,49.394,47.554,36.008,71.952a107.919,107.919,0,0,1-11.854,17.73c-2.258,2.686-5.209,5.923-6.206,7.459-.333.512-3.217,6.982-3.716,6.856-1.507-.38-.9-.457-.163-7.154A82.366,82.366,0,0,1,64.5,100.091c.4-1.609,7.894-13.971,2.136-18.447q-5.758-4.476-15.558,5.467L47.111,85.6A89.362,89.362,0,0,0,52.082,72.52C53.121,68.3,55.42,52.674,38.181,48.319Z" transform="translate(1566.912 526.684)" fill="url(#linear-gradient-14)"/>
    <path id="Mask_Path-7" data-name="Mask Path" d="M53.1,17.221c-1.316,2.971-6.282,9.82-10.763,12.294s-13.921,2.625-15.858-.2-10.732-15.6-18.66-17.6a55.867,55.867,0,0,1-3.258,8.252q9.2,3.877,10.691,7.293c1.487,3.416,2.286,1.127.8,2.645s-9.241.351-9.83-5.573C3.989,29.056,1.586,41.789,2.433,44.7s5.724,4.244,10.537,4.557S34.932,52.22,39.3,51.316s9.916-.384,13.57-11.1,2.842-17.666,7.61-26.8S54.419,14.25,53.1,17.221Z" transform="translate(1560.926 595.262)" fill="url(#linear-gradient-15)"/>
    <path id="Mask_Path-8" data-name="Mask Path" d="M133.681,2.284q27.176,6.271,36.52,20.9c9.343,14.633,14.024,53.5,14.024,66.111s1.49,43.537,0,51.975-8.331,14.706-22.489,14.706q-14.158,0-160.5-53.361Q20.485,92.978,21.1,89.3c.612-3.679,30.385-70.773,39.8-77.607S89.861,1.622,97.7,1.622C96.551,4.845,94,7.445,97.605,11.692s10.674,4.989,17.678,2.041Q122.287,10.785,133.681,2.284Z" transform="translate(1494.008 653.56)" fill="#917bff"/>
    <path id="Mask_Path-9" data-name="Mask Path" d="M133.681,2.284q27.176,6.271,36.52,20.9c9.343,14.633,14.024,53.5,14.024,66.111s1.49,43.537,0,51.975-8.331,14.706-22.489,14.706q-14.158,0-160.5-53.361Q20.485,92.978,21.1,89.3c.612-3.679,30.385-70.773,39.8-77.607S89.861,1.622,97.7,1.622C96.551,4.845,94,7.445,97.605,11.692s10.674,4.989,17.678,2.041Q122.287,10.785,133.681,2.284Z" transform="translate(1494.008 653.56)" fill="url(#linear-gradient-16)"/>
    <path id="Path_6" data-name="Path 6" d="M4.15,17.528c-15,15.56,14.594,23.851,26.68,19.705S56.479,17.528,56.479,17.528,22.3-8.237,13.227,4.646,19.154,1.968,4.15,17.528Z" transform="translate(1578.011 640.235)" opacity="0.585" fill="url(#linear-gradient-17)"/>
    <path id="Path_8" data-name="Path 8" d="M0,97.219c10.684,0,80.15-11.654,80.15-21.114S74.794,0,74.794,0" transform="translate(1560.777 701.323)" opacity="0.547" fill="url(#linear-gradient-18)"/>
    <path id="Path_8_Copy" data-name="Path 8 Copy" d="M0,103.105c4.839,0,27.212,28.716,47.652,19.051C72.345,110.48,86.723,67.248,86.723,62.072c0-3.959,6.483-18,4.014-33.3C89.274,19.7,77.328,0,77.328,0" transform="translate(1463.461 654.409)" opacity="0.547" fill="url(#linear-gradient-18)"/>
    <path id="Mask_Path-10" data-name="Mask Path" d="M133.681,2.284q27.176,6.271,36.52,20.9c9.343,14.633,14.024,53.5,14.024,66.111s1.49,43.537,0,51.975-8.331,14.706-22.489,14.706q-14.158,0-160.5-53.361Q20.485,92.978,21.1,89.3c.612-3.679,30.385-70.772,39.8-77.607S89.861,1.622,97.7,1.622C96.551,4.845,94,7.445,97.605,11.692s10.674,4.989,17.678,2.041Q122.287,10.785,133.681,2.284Z" transform="translate(1494.008 653.56)" fill="#917bff"/>
    <path id="Mask_Path-11" data-name="Mask Path" d="M133.681,2.284q27.176,6.271,36.52,20.9c9.343,14.633,14.024,53.5,14.024,66.111s1.49,43.537,0,51.975-8.331,14.706-22.489,14.706q-14.158,0-160.5-53.361Q20.485,92.978,21.1,89.3c.612-3.679,30.385-70.772,39.8-77.607S89.861,1.622,97.7,1.622C96.551,4.845,94,7.445,97.605,11.692s10.674,4.989,17.678,2.041Q122.287,10.785,133.681,2.284Z" transform="translate(1494.008 653.56)" fill="url(#linear-gradient-16)"/>
    <path id="Mask_Path-12" data-name="Mask Path" d="M3.039,24.959Q6.983,55.409,4.55,60.4C2.118,65.386,6.829,88.851,21.829,90.212S44.692,85.1,45.281,69.265s1.529-21.936,3.951-28.942S6.511,4.292,4.55,9.658Q2.59,15.024,3.039,24.959Z" transform="translate(1379.117 419.472)" fill="url(#linear-gradient-21)"/>
    <path id="Mask_Path-13" data-name="Mask Path" d="M72.18,12.024c0,4.514.592,18.6.144,22.175a86.835,86.835,0,0,0-.4,15.766c.4,6.874-3.122,23.781-7.055,29.906-2.348,3.657-11.657,10.707-20.788,9.717C33.256,88.413,21.42,77.823,20.154,72.529c-2.334-9.761-.4-18.375-7.126-23.562S1.4,38.961,2.006,30.953,9.517,3.883,13.028,3.082,72.18,7.51,72.18,12.024Z" transform="translate(1371.627 385.771)" fill="url(#linear-gradient-22)"/>
    <path id="Mask_Path-14" data-name="Mask Path" d="M28.623,38.36c3.192,4.879,31.135,28.4,59.143,13.13S78.517,8.5,61.623,5.335,30.18,3.93,19.961,18.3,4.617,57.282,24.608,90.681a81.622,81.622,0,0,0,1.32-10.6Q13.995,69.024,19.961,59.469c5.967-9.554,7.94,9.178,8.662,12.188q3.562,0,4.484-1.259a30.014,30.014,0,0,1-1.79-13.117C31.982,51.256,33.946,49.915,28.623,38.36Z" transform="translate(1357.402 353.671)" fill="url(#linear-gradient-23)"/>
    <path id="Mask_Path-15" data-name="Mask Path" d="M28.623,38.36c3.192,4.879,31.135,28.4,59.143,13.13S78.517,8.5,61.623,5.335,30.18,3.93,19.961,18.3,4.617,57.282,24.608,90.681a81.622,81.622,0,0,0,1.32-10.6Q13.995,69.024,19.961,59.469c5.967-9.554,7.94,9.178,8.662,12.188q3.562,0,4.484-1.259a30.014,30.014,0,0,1-1.79-13.117C31.982,51.256,33.946,49.915,28.623,38.36Z" transform="translate(1357.402 353.671)" fill="url(#linear-gradient-24)"/>
    <path id="Shape_sp-16-0" data-name="Shape sp-16-0" d="M2.041,75.085c0-7.361-8.417-55.577,8.931-70.063s38.806,6.646,117.836,9.848q1.952,48.573,0,68.392C127.507,96.475,79.77,115.2,2.041,75.085Z" transform="translate(1330.662 669.159)" fill="url(#linear-gradient-25)"/>
    <path id="Shape_sp-16-0-2" data-name="Shape sp-16-0" d="M2.041,75.085c0-7.361-8.417-55.577,8.931-70.063s38.806,6.646,117.836,9.848q1.952,48.573,0,68.392C127.507,96.475,79.77,115.2,2.041,75.085Z" transform="translate(1330.662 669.159)" fill="url(#linear-gradient-26)"/>
    <path id="Shape_sp-31-0" data-name="Shape sp-31-0" d="M3.775,22.07c1.863,8.363,8.029,17.3,10.106,19.225s9.634,4.32,11.063,3.856S30.133,41.5,30.3,37.776s-3.437-5.826-3.461-11.332S17.778,12.951,17.778,8.079,1.912,13.707,3.775,22.07Z" transform="translate(1315.533 659.734)" fill="url(#linear-gradient-22)"/>
    <path id="Shape_sp-32-0" data-name="Shape sp-32-0" d="M6.52,25.482c5.606,7.534,9.255,8.852,11.357,11.1s6.91,10.178,8.7,8.856,3.635-3.926.856-8.856S20.442,26.45,21.9,23.84s8.591-10.323,14.542-12.114,7.928-.634,8.521-1.6-7.117-2.359-10.294-2.72a57.313,57.313,0,0,0-14.171,0q-6.492.775-9.044-5.468Q.915,17.948,6.52,25.482Z" transform="translate(1545.101 644.849)" fill="url(#linear-gradient-22)"/>
    <path id="Mask_Path-16" data-name="Mask Path" d="M43.955,189.792c-3.975-2.269-17.28,3.147-17.28,14.1C19.609,179.528,0,146.547,0,110.5,8.989,79.079,32.44,29.541,37.677,21.766Q42.914,13.991,89.576,0q10.437,11.557,24.738,11.557c14.3,0,15.052-8.885,18.872-9.349S158.65,11.557,169.325,22s22.1,51.5,50.185,83.371,38.152,54.11,52.085,66.085c-5.111,4.637-12.035,7.338-12.035,18.339-5.043-3.745-33.179-23.351-57.026-46.171s-34.422-41.8-38.022-44.368c-4.139-2.955,5.217,88.454,4.813,104.641S113.988,221,96.809,221,53.063,214.98,46.244,209.04c-1.124-.979,1.822-129.5,0-124.106-4.622,13.682-15.357,20.434-15.357,29.444C30.887,135.317,43.98,191.267,43.955,189.792Z" transform="translate(1292.045 480.746)" fill="url(#linear-gradient-29)"/>
    <path id="Mask_Path-17" data-name="Mask Path" d="M43.955,189.792c-3.975-2.269-17.28,3.147-17.28,14.1C19.609,179.528,0,146.547,0,110.5,8.989,79.079,32.44,29.541,37.677,21.766Q42.914,13.991,89.576,0q10.437,11.557,24.738,11.557c14.3,0,15.052-8.885,18.872-9.349S158.65,11.557,169.325,22s22.1,51.5,50.185,83.371,38.152,54.11,52.085,66.085c-5.111,4.637-12.035,7.338-12.035,18.339-5.043-3.745-33.179-23.351-57.026-46.171s-34.422-41.8-38.022-44.368c-4.139-2.955,5.217,88.454,4.813,104.641S113.988,221,96.809,221,53.063,214.98,46.244,209.04c-1.124-.979,1.822-129.5,0-124.106-4.622,13.682-15.357,20.434-15.357,29.444C30.887,135.317,43.98,191.267,43.955,189.792Z" transform="translate(1292.045 480.746)" fill="rgba(175,255,167,0.56)"/>
    <path id="Path_4" data-name="Path 4" d="M10.984,33.138,35.6,0S44.712,107.463,4.016,144.687c-7.171-43.058-3.179-65.563,0-84.379A222.726,222.726,0,0,1,10.984,33.138Z" transform="translate(1320.893 543.139)" opacity="0.4" fill="url(#linear-gradient-30)"/>
    <path id="Path_5" data-name="Path 5" d="M63.637,233.939c9.187-27.27,50.474-117.087,68.144-129.894s19-29.336,18.336-51.276S108.18-12.882,86.6,3.652,7.264,50.689.947,101.84,21.531,231.449,33.684,223.693,54.449,261.209,63.637,233.939Z" transform="translate(1277.098 462.034)" opacity="0.713" fill="url(#linear-gradient-31)" style="mix-blend-mode: multiply;isolation: isolate"/>
    <path id="Mask_Path-18" data-name="Mask Path" d="M43.955,189.792c-3.975-2.269-17.28,3.147-17.28,14.1C19.609,179.527,0,146.547,0,110.5,8.989,79.079,32.44,29.541,37.677,21.766Q42.914,13.991,89.576,0q10.437,11.557,24.738,11.557c14.3,0,15.052-8.885,18.872-9.349S158.65,11.557,169.325,22s22.1,51.5,50.185,83.371,38.152,54.11,52.085,66.085c-5.111,4.637-12.035,7.338-12.035,18.339-5.043-3.745-33.179-23.351-57.026-46.171s-34.422-41.8-38.022-44.368c-4.139-2.955,5.217,88.454,4.813,104.641S113.988,221,96.809,221,53.063,214.98,46.244,209.04c-1.124-.979,1.822-129.5,0-124.106-4.622,13.682-15.357,20.434-15.357,29.444C30.887,135.317,43.98,191.267,43.955,189.792Z" transform="translate(1292.045 480.746)" fill="url(#linear-gradient-29)"/>
    <path id="Mask_Path-19" data-name="Mask Path" d="M43.955,189.792c-3.975-2.269-17.28,3.147-17.28,14.1C19.609,179.527,0,146.547,0,110.5,8.989,79.079,32.44,29.541,37.677,21.766Q42.914,13.991,89.576,0q10.437,11.557,24.738,11.557c14.3,0,15.052-8.885,18.872-9.349S158.65,11.557,169.325,22s22.1,51.5,50.185,83.371,38.152,54.11,52.085,66.085c-5.111,4.637-12.035,7.338-12.035,18.339-5.043-3.745-33.179-23.351-57.026-46.171s-34.422-41.8-38.022-44.368c-4.139-2.955,5.217,88.454,4.813,104.641S113.988,221,96.809,221,53.063,214.98,46.244,209.04c-1.124-.979,1.822-129.5,0-124.106-4.622,13.682-15.357,20.434-15.357,29.444C30.887,135.317,43.98,191.267,43.955,189.792Z" transform="translate(1292.045 480.746)" fill="rgba(175,255,167,0.56)"/>
    <path id="Mask_Path-20" data-name="Mask Path" d="M5.787,8.311c0,4.986,7.484,18.924,21.937,18.394s17.36-.933,19-8.368c0,11.015.563,14.267-2.1,21.53s-19.278,11.246-28.6,5.213S1.857,35.434,3.22,24.418,5.787,3.324,5.787,8.311Z" transform="translate(1378.451 455.88)" fill="url(#linear-gradient-33)"/>
    <path id="Mask_Path-21" data-name="Mask Path" d="M5.787,8.311c0,4.986,7.484,18.924,21.937,18.394s17.36-.933,19-8.368c0,11.015.563,14.267-2.1,21.53s-19.278,11.246-28.6,5.213S1.857,35.434,3.22,24.418,5.787,3.324,5.787,8.311Z" transform="translate(1378.451 455.88)" fill="rgba(121,243,150,0.6)"/>
    <path id="chair" d="M14.089,33.444,146.626,1q36.768,100.435,33.363,165.21Q139.842,183.068,59.55,209.925L4.821,50.658a13.278,13.278,0,0,1,8.041-16.849Q13.467,33.6,14.089,33.444Z" transform="translate(1042.367 583.63)" fill="url(#linear-gradient-34)"/>
    <path id="hair" d="M13.305,14.991C10.467,24.1,19.686,49.8,34.33,62.365S1.872,72.792,1.845,58.786,16.143,5.886,13.305,14.991Z" transform="translate(1194.017 578.698)" fill="#316eea"/>
    <path id="arm" d="M1.206,1.807Q17.819,8.748,25.159,16.632c7.341,7.883,43.039,69.2,47.248,72.83s33.177,6.38,37.538,7.828c-2.231,3.27-6.57,13.369-4.34,22.251-6.884,3.511-22.006.376-52.939-3.135C29.658,96.907,17.71,66.152,12.791,51.47A297.544,297.544,0,0,1,1.206,1.807Z" transform="translate(1212.525 620.412)" fill="url(#linear-gradient-35)"/>
    <path id="arm-2" data-name="arm" d="M1.206,1.807Q17.819,8.748,25.159,16.632c7.341,7.883,43.039,69.2,47.248,72.83s33.177,6.38,37.538,7.828c-2.231,3.27-6.57,13.369-4.34,22.251-6.884,3.511-22.006.376-52.939-3.135C29.658,96.907,17.71,66.152,12.791,51.47A297.544,297.544,0,0,1,1.206,1.807Z" transform="translate(1212.525 620.412)" fill="url(#linear-gradient-36)"/>
    <path id="shirt" d="M72.2,18.025c8.941,15.494,22.733,46.606,26.65,60.037,4.2,14.4-12.127,52.337-11.938,61.251.158,7.433-7.392,4.837-74.457,11.675q-3.109-19.658,0-49.159c3.109-29.5-9.56-69.192-6.048-75.856S18.466,5.137,22.217,5.137,63.259,2.531,72.2,18.025Z" transform="translate(1156.728 614.709)" fill="url(#linear-gradient-35)"/>
    <path id="shirt-2" data-name="shirt" d="M72.2,18.025c8.941,15.494,22.733,46.606,26.65,60.037,4.2,14.4-12.127,52.337-11.938,61.251.158,7.433-7.392,4.837-74.457,11.675q-3.109-19.658,0-49.159c3.109-29.5-9.56-69.192-6.048-75.856S18.466,5.137,22.217,5.137,63.259,2.531,72.2,18.025Z" transform="translate(1156.728 614.709)" fill="url(#linear-gradient-38)"/>
    <path id="desk_top" data-name="desk top" d="M0,88.642,404.869,3.013A38.705,38.705,0,0,1,426,4.467L768.888,127.926c38.886,14,34.419,71.114-6.158,78.736L620.881,233.307a64.492,64.492,0,0,1-11.907,1.109H65.312C29.241,234.416,0,204.791,0,168.247Z" transform="translate(952.35 707.176)" fill="url(#linear-gradient-39)"/>
    <path id="desk_top-2" data-name="desk top" d="M0,88.642,404.869,3.013A38.705,38.705,0,0,1,426,4.467L768.888,127.926c38.886,14,34.419,71.114-6.158,78.736L620.881,233.307a64.492,64.492,0,0,1-11.907,1.109H65.312C29.241,234.416,0,204.791,0,168.247Z" transform="translate(952.35 707.176)" fill="none"/>
    <path id="shadow" d="M0,26.181,159.883,0,281.531,54,105.42,101.329" transform="translate(1242.729 783.813)" opacity="0.197" fill="url(#linear-gradient-40)" style="mix-blend-mode: multiply;isolation: isolate"/>
    <path id="Mask_Path-22" data-name="Mask Path" d="M35.67,21.142c-1.671,7.91-.229,13.633-.229,22.636,0,12.033-24.254,7.137-25.082-1.985s.15-21.352-3.266-29.639S37.341,13.232,35.67,21.142Z" transform="translate(1168.114 576.318)" fill="url(#linear-gradient-41)"/>
    <path id="Path" d="M0,41.526s36.636-31.1,45.091-31.1S0,0,0,0Z" transform="translate(1169.063 591.135)" fill="#b60808" opacity="0.411" style="mix-blend-mode: multiply;isolation: isolate"/>
    <path id="Mask_Path-23" data-name="Mask Path" d="M35.67,21.142c-1.671,7.91-.229,13.633-.229,22.636,0,12.033-24.254,7.137-25.082-1.985s.15-21.352-3.266-29.639S37.341,13.232,35.67,21.142Z" transform="translate(1168.114 576.318)" fill="url(#linear-gradient-41)"/>
    <path id="face" d="M51.909,11.283c2.156,6.9,1.914,14.545,6.1,21.131S67.7,44.752,69.163,47.679s-5.871,5.526-5.871,8.143,4.888,20.825,2.272,22.565c-1.491,4.066-28.94,9.7-35.871,5.665-6.11,0-15.528-5.431-21.307-18.777s-6.045-45.753,0-53.991S49.753,4.387,51.909,11.283Z" transform="translate(1159.323 522.523)" fill="url(#linear-gradient-43)"/>
    <path id="Mask_Path-24" data-name="Mask Path" d="M1.955,79.8,11.113,4.536,135.99,2,125.071,75.482Z" transform="translate(1252.105 717.615)" fill="url(#linear-gradient-44)"/>
    <path id="Path_2" data-name="Path 2" d="M16.256,59.5,0,0H26.188Z" transform="translate(1367.532 717.638)" opacity="0.458" fill="url(#linear-gradient-45)" style="mix-blend-mode: multiply;isolation: isolate"/>
    <path id="Path_7" data-name="Path 7" d="M22.972.912c0,4.748,11.284,11.639,24.55,17.671C55.213,22.08,54.153,30.2,57.5,30.2,66.621,30.2,1.86,56.868,1.86,56.868s-3.512-36.063,0-45.475C5.687,1.136,22.972-1.7,22.972.912Z" transform="translate(1244.968 761.786)" opacity="0.4" fill="url(#linear-gradient-46)" style="mix-blend-mode: multiply;isolation: isolate"/>
    <path id="Mask_Path-25" data-name="Mask Path" d="M1.955,79.8,11.113,4.536,135.99,2,125.071,75.482Z" transform="translate(1252.105 717.615)" fill="url(#linear-gradient-44)"/>
    <path id="hand" d="M16.34,10.243c3.792,0,8.383-2.032,15.089-3.585s10.935-4.02,12.994-1.725c.8.9-.538,3.08-1.519,3.676a19.869,19.869,0,0,1-6.184,3.226c-4.346,1.628-6.862,2.39-6.077,3.906s7.9,2.837,10.185,3.448c2.91.781,7.287,2.3,11.46,3.013,4.664.794,9.818.882,10.41,1.228,1.122.656,2.763,3.126,0,3.914a77.651,77.651,0,0,1-11.114,0c-6.131-.3-11.753-1.492-10.756,0,.236.354,5.89,1.522,12.1,1.522,3.68,0,11.128.464,11.6.464a1.944,1.944,0,0,1,1.013,3.52c-.36.271-7.547,1.1-13.251,1.308-6.566.245-12.377-.358-12.446,0-.05.261,6.866,1.142,13.086.842,5.032-.243,7.8-.642,8.74,0s.7,2.356,0,3.127c-.292.321-4.839,1.786-9.379,2.09-6.376.428-13.3-.32-13.365,0-.163.848,11.619,1.386,13.365,1.386,2.485,0,2.172,3.256-.7,3.945-3.607.865-11.071.8-14.467.8A41.225,41.225,0,0,1,23.51,43.629c-5.107-1.921-11.927-4.494-16.249-5.5-4.672-1.088-1.317-16.051,1.918-23.9S12.548,10.243,16.34,10.243Z" transform="translate(1227.553 756.64)" fill="url(#linear-gradient-48)"/>
    <path id="arm-3" data-name="arm" d="M14.082,31.535c-9.66,25.026-2.023,44.021,2.217,65.7s6.17,26.375,12.928,30.785,23.33,10.553,87.025,18.005c0-5.154-.162-17.959,8.163-28.711-11.77,0-53.609-11.691-67.995-15.355-12.924-10.035,0-26.124,0-56.309S23.742,6.509,14.082,31.535Z" transform="translate(1116.938 649.018)" fill="url(#linear-gradient-35)"/>
    <path id="arm-4" data-name="arm" d="M14.082,31.535c-9.66,25.026-2.023,44.021,2.217,65.7s6.17,26.375,12.928,30.785,23.33,10.553,87.025,18.005c0-5.154-.162-17.959,8.163-28.711-11.77,0-53.609-11.691-67.995-15.355-12.924-10.035,0-26.124,0-56.309S23.742,6.509,14.082,31.535Z" transform="translate(1116.938 649.018)" fill="url(#linear-gradient-50)"/>
    <path id="Shape_sp-23-0" data-name="Shape sp-23-0" d="M34.187,1.156,1.583,7.38V9.852l33.764-2.6Z" transform="translate(1166.677 558.434)" fill="#8c2d14"/>
    <path id="Shape_sp-25-0" data-name="Shape sp-25-0" d="M11.522,25.585c-3.764.4-7.325-4.139-7.947-10.132S5.505,4.27,9.269,3.869,16.594,8.008,17.216,14,15.286,25.184,11.522,25.585Z" transform="translate(1198.021 546.938)" fill="rgba(0,0,0,0)" stroke="#8c2214" stroke-miterlimit="10" stroke-width="4"/>
    <path id="Shape_sp-26-0" data-name="Shape sp-26-0" d="M10.765,23.509c-3.406.363-6.627-3.745-7.19-9.167S5.321,4.224,8.726,3.861s6.627,3.745,7.19,9.167S14.17,23.147,10.765,23.509Z" transform="translate(1216.958 538.337)" fill="rgba(0,0,0,0)" stroke="#8c2214" stroke-miterlimit="10" stroke-width="4"/>
    <path id="Shape_sp-27-0" data-name="Shape sp-27-0" d="M3.462,7.3c0-1.512,4.212-4.476,6.325-2.984" transform="translate(1211.09 551.549)" fill="none" stroke="#8c3514" stroke-miterlimit="10" stroke-width="4"/>
    <path id="hair-2" data-name="hair" d="M80.9,47.2c9.026,7.071,30.028,9.145,44.324,2.313s17.784-34.8,0-43.407c-6.764-3.273-20.2-1.154-18.336,8.712-15.559-6.1-32.479-.758-39.187,3.308C57.251,24.458,49.1,31.361,44.82,45.872s2.71,28.943-.732,36.333S30.506,96.011,35.927,118.72,28.321,137.8,25.385,151.648s6.417,20.461,0,29.691-18.719,48.2,4.322,69.066,65.978,36.075,75.735-8.851-36.012-54.733-22.581-77.2,4.534-43.293,7.345-49.716c3.459-7.9-.26-19.961-6.829-36.3C77.294,63.2,86.052,59.159,80.9,47.2Z" transform="translate(1089.072 489.752)" fill="url(#linear-gradient-51)"/>
    <path id="hair-3" data-name="hair" d="M80.9,47.2c9.026,7.071,30.028,9.145,44.324,2.313s17.784-34.8,0-43.407c-6.764-3.273-20.2-1.154-18.336,8.712-15.559-6.1-32.479-.758-39.187,3.308C57.251,24.458,49.1,31.361,44.82,45.872s2.71,28.943-.732,36.333S30.506,96.011,35.927,118.72,28.321,137.8,25.385,151.648s6.417,20.461,0,29.691-18.719,48.2,4.322,69.066,65.978,36.075,75.735-8.851-36.012-54.733-22.581-77.2,4.534-43.293,7.345-49.716c3.459-7.9-.26-19.961-6.829-36.3C77.294,63.2,86.052,59.159,80.9,47.2Z" transform="translate(1089.072 489.752)" fill="url(#linear-gradient-52)"/>
    <path id="hair-4" data-name="hair" d="M80.9,47.2c9.026,7.071,30.028,9.145,44.324,2.313s17.784-34.8,0-43.407c-6.764-3.273-20.2-1.154-18.336,8.712-15.559-6.1-32.479-.758-39.187,3.308C57.251,24.458,49.1,31.361,44.82,45.872s2.71,28.943-.732,36.333S30.506,96.011,35.927,118.72,28.321,137.8,25.385,151.648s6.417,20.461,0,29.691-18.719,48.2,4.322,69.066,65.978,36.075,75.735-8.851-36.012-54.733-22.581-77.2,4.534-43.293,7.345-49.716c3.459-7.9-.26-19.961-6.829-36.3C77.294,63.2,86.052,59.159,80.9,47.2Z" transform="translate(1089.072 489.752)" fill="url(#linear-gradient-53)"/>
    <path id="Path-2" data-name="Path" d="M0,15.127,86.9,0q71.952,45.554,70.522,45.846c-1.356.277-97.317,17.277-103.8,19.039Q54.537,62.533,0,15.127Z" transform="translate(1250.132 838.719)" fill="url(#linear-gradient-54)"/>
    <path id="Path-3" data-name="Path" d="M0,6.191,90.817,0l49.927,44.194L27.6,52.1Z" transform="translate(1301.729 824.162)" fill="url(#linear-gradient-54)"/>
    <path id="Mask_Path-26" data-name="Mask Path" d="M128.206,78.679l82.48-33.273a3.323,3.323,0,0,0,1.825-4.3,3.284,3.284,0,0,0-1.932-1.89L105.558,1.083,1.955,27.024Z" transform="translate(1396.445 758.288)" fill="url(#linear-gradient-56)"/>
    <path id="Mask_Path-27" data-name="Mask Path" d="M7.117,1.883,123.49,40.036a9.884,9.884,0,0,1,6.618,7.642l20.823,114.333-126.1-51.827L2.085,6.522A3.971,3.971,0,0,1,5.06,1.785,3.869,3.869,0,0,1,7.117,1.883Z" transform="translate(1372.921 675.372)" fill="url(#linear-gradient-57)"/>
    <path id="Shape_sp-37-0" data-name="Shape sp-37-0" d="M12.841,21.636c6,2.964,12.322,2.958,14.931-2.462s-2.1-11.554-8.1-14.517S8.008,1.7,5.4,7.118,6.844,18.672,12.841,21.636Z" transform="translate(1425.573 739.884)" fill="#e2ecff"/>
    <path id="Shape_sp-8-0" data-name="Shape sp-8-0" d="M3.6,8.7A4.6,4.6,0,0,1,8.148,4.039l12.058-.071A4.6,4.6,0,0,1,24.8,8.68l-.1,5.867A4.6,4.6,0,0,1,20.074,19.1L8.146,18.945a4.6,4.6,0,0,1-4.514-4.607Z" transform="translate(1395.221 417.866)" fill="none" stroke="#fff" stroke-miterlimit="10" stroke-width="5"/>
    <path id="Shape_sp-9-0" data-name="Shape sp-9-0" d="M3.512,8.705A4.6,4.6,0,0,1,8.085,4.023l10.2,0A4.6,4.6,0,0,1,22.851,8.7L22.8,14.554A4.6,4.6,0,0,1,18.13,19.14L8.05,18.929a4.6,4.6,0,0,1-4.477-4.58Z" transform="translate(1429.867 417.848)" fill="none" stroke="#fff" stroke-miterlimit="10" stroke-width="5"/>
    <path id="Shape_sp-30-0" data-name="Shape sp-30-0" d="M1.955,4H15.018" transform="translate(1417.998 424.472)" fill="rgba(0,0,0,0)" stroke="#fff" stroke-miterlimit="10" stroke-width="4"/>
    <path id="Shape_sp-38-0" data-name="Shape sp-38-0" d="M1.754,1.981,17.67,9.813v7.669L3.264,7.3Z" transform="translate(1382.146 415.23)" fill="#fff"/>
    <path id="mouth" d="M11.94,1.83c.641-.335.44,1.146.719,2.016a12.15,12.15,0,0,1,.561,1.573,11.713,11.713,0,0,1-10.39-.2c-.621-.372-1.163-.677-.649-1.19s1.155-.191,1.847.016C6.442,4.773,10.282,2.7,11.94,1.83Z" transform="translate(1210.952 581.381)" fill="#8f2e1a"/>
    <path id="shadow-2" data-name="shadow" d="M40.187,1C61.829,1,79.374,4.851,79.374,9.6s-17.545,8.6-39.187,8.6S1,14.353,1,9.6,18.545,1,40.187,1Z" transform="translate(1089.157 880.067)" opacity="0.4" fill="url(#linear-gradient-58)" style="mix-blend-mode: multiply;isolation: isolate"/>
    <path id="Ellipse_2" data-name="Ellipse 2" d="M90.449,2.906a35.045,35.045,0,0,1,4.6,17.29c0,22.109-21.053,40.032-47.024,40.032S1,42.305,1,20.2A35.159,35.159,0,0,1,6.128,2C26.96,5.34,68.424,5.125,90.449,2.906Z" transform="translate(1091.117 836.719)" fill="url(#linear-gradient-59)"/>
    <path id="Ellipse_2-2" data-name="Ellipse 2" d="M90.449,2.906a35.045,35.045,0,0,1,4.6,17.29c0,22.109-21.053,40.032-47.024,40.032S1,42.305,1,20.2A35.159,35.159,0,0,1,6.128,2C26.96,5.34,68.424,5.125,90.449,2.906Z" transform="translate(1091.117 836.719)" fill="url(#linear-gradient-59)"/>
    <path id="Ellipse_1" data-name="Ellipse 1" d="M44.779,1C68.406,1,87.558,5.592,87.558,11.256S68.406,21.512,44.779,21.512,2,16.921,2,11.256,21.153,1,44.779,1Z" transform="translate(1094.688 829.779)" fill="url(#linear-gradient-61)"/>
    <path id="Ellipse_1-2" data-name="Ellipse 1" d="M44.779,1C68.406,1,87.558,5.592,87.558,11.256S68.406,21.512,44.779,21.512,2,16.921,2,11.256,21.153,1,44.779,1Z" transform="translate(1094.688 829.779)" fill="url(#linear-gradient-61)"/>
    <path id="Shape_2" data-name="Shape 2" d="M42.146,122.089C39.81,105.71,33.383,82.057,14.062,56.582,2.681,41.575,2.644,5.03,1,1,9.931,4.111,25.974,12.132,42.146,34.746,59.1,58.452,48.345,106.8,42.146,122.089Z" transform="translate(1093.729 711.336)" fill="url(#linear-gradient-63)"/>
    <path id="Shape_3" data-name="Shape 3" d="M20.177,91.666C21.96,51.851,17.067,26.722,1.683,3" transform="translate(1115.044 741.759)" fill="rgba(0,0,0,0)" stroke="#489c71" stroke-miterlimit="10" stroke-width="3" opacity="0.5" style="mix-blend-mode: multiply;isolation: isolate"/>
    <path id="Shape_2-2" data-name="Shape 2" d="M42.146,122.089C39.81,105.71,33.383,82.057,14.062,56.582,2.681,41.575,2.644,5.03,1,1,9.931,4.111,25.974,12.132,42.146,34.746,59.1,58.452,48.345,106.8,42.146,122.089Z" transform="translate(1093.729 711.336)" fill="url(#linear-gradient-63)"/>
    <path id="Shape_2-3" data-name="Shape 2" d="M73.1,80.264c-7.218-11.7-19.97-27.546-43.166-40.4C16.265,32.3,4.11,4.439,1.519,1.925c7.847-.667,22.751-.011,42.595,11.73C64.916,25.963,72.751,66.493,73.1,80.264Z" transform="translate(1062.853 769.975)" fill="url(#linear-gradient-65)"/>
    <path id="Shape_3-2" data-name="Shape 3" d="M45.226,65.391C33.376,34.42,21.3,16.922,1.694,4.068" transform="translate(1090.223 785.07)" fill="rgba(0,0,0,0)" stroke="#489c71" stroke-miterlimit="10" stroke-width="3" opacity="0.5" style="mix-blend-mode: multiply;isolation: isolate"/>
    <path id="Shape_2-4" data-name="Shape 2" d="M73.1,80.264c-7.218-11.7-19.97-27.546-43.166-40.4C16.265,32.3,4.11,4.439,1.519,1.925c7.847-.667,22.751-.011,42.595,11.73C64.916,25.963,72.751,66.493,73.1,80.264Z" transform="translate(1062.853 769.975)" fill="url(#linear-gradient-65)"/>
    <path id="Shape_2-5" data-name="Shape 2" d="M3.874,89.167C9.565,76.578,20.237,59.13,41.7,43.3,54.336,33.979,62.874,4.653,65.134,1.811c-7.9.361-22.663,2.961-40.925,17.245C5.065,34.03,2.453,75.41,3.874,89.167Z" transform="translate(1137.257 762.674)" fill="url(#linear-gradient-63)"/>
    <path id="Shape_3-3" data-name="Shape 3" d="M1.513,68.662C9.35,36.275,19.132,17.275,37.019,1.913" transform="translate(1137.963 783.151)" fill="rgba(0,0,0,0)" stroke="#489c71" stroke-miterlimit="10" stroke-width="3" opacity="0.5" style="mix-blend-mode: multiply;isolation: isolate"/>
    <path id="Shape_2-6" data-name="Shape 2" d="M3.874,89.167C9.565,76.578,20.237,59.13,41.7,43.3,54.336,33.979,62.874,4.653,65.134,1.811c-7.9.361-22.663,2.961-40.925,17.245C5.065,34.03,2.453,75.41,3.874,89.167Z" transform="translate(1137.257 762.674)" fill="url(#linear-gradient-63)"/>
  </g>
</svg>
